name baseline.mot
datacolumns 19
datarows 23
range 1.64166100000000 1.67832800000000
endheader
time	ground_force1_vx	ground_force1_vy	ground_force1_vz	ground_force1_px	ground_force1_py	ground_force1_pz	ground_force2_vx	ground_force2_vy	ground_force2_vz	ground_force2_px	ground_force2_py	ground_force2_pz	ground_torque1_x	ground_torque1_y	ground_torque1_z	ground_torque2_x	ground_torque2_y	ground_torque2_z	
1.64166100000000	-51.53768100000000	751.78819699999997	57.71087000000000	-0.08613200000000	0.00000000000000	0.10634200000000	-6.90717300000000	89.60849899999999	7.26091000000000	0.21114100000000	0.00000000000000	-0.11693700000000	0.00000000000000	0.66305700000000	0.00000000000000	0.00000000000000	2.55548700000000	0.00000000000000	
1.64333100000000	-51.87659900000000	749.89024700000004	57.42690900000000	-0.08678900000000	0.00000000000000	0.10624500000000	-6.45177200000000	94.11698600000000	7.23684000000000	0.21307300000000	0.00000000000000	-0.11722700000000	0.00000000000000	0.69026300000000	0.00000000000000	0.00000000000000	2.66792400000000	0.00000000000000	
1.64499700000000	-52.21939700000000	747.92278099999999	57.13041200000000	-0.08744400000000	0.00000000000000	0.10614600000000	-5.92262000000000	98.54740200000001	7.16697200000000	0.21486600000000	0.00000000000000	-0.11751000000000	0.00000000000000	0.72134900000000	0.00000000000000	0.00000000000000	2.77475200000000	0.00000000000000	
1.64666100000000	-52.56648100000000	745.88501499999995	56.82152700000000	-0.08809600000000	0.00000000000000	0.10604400000000	-5.33273600000000	102.95428699999999	7.05888900000000	0.21653000000000	0.00000000000000	-0.11778800000000	0.00000000000000	0.75636200000000	0.00000000000000	0.00000000000000	2.87763700000000	0.00000000000000	
1.64832800000000	-52.91824000000000	743.77615200000002	56.50041700000000	-0.08874700000000	0.00000000000000	0.10593900000000	-4.69351000000000	107.38715600000000	6.91929400000000	0.21807300000000	0.00000000000000	-0.11806100000000	0.00000000000000	0.79534000000000	0.00000000000000	0.00000000000000	2.97808500000000	0.00000000000000	
1.64999600000000	-53.27505100000000	741.59538299999997	56.16725600000000	-0.08939700000000	0.00000000000000	0.10583200000000	-4.01425100000000	111.88779700000001	6.75368100000000	0.21950200000000	0.00000000000000	-0.11832900000000	0.00000000000000	0.83831700000000	0.00000000000000	0.00000000000000	3.07734200000000	0.00000000000000	
1.65165900000000	-53.63727000000000	739.34188099999994	55.82222700000000	-0.09004700000000	0.00000000000000	0.10572200000000	-3.30198400000000	116.48860200000000	6.56615400000000	0.22082500000000	0.00000000000000	-0.11859400000000	0.00000000000000	0.88532300000000	0.00000000000000	0.00000000000000	3.17633300000000	0.00000000000000	
1.65332700000000	-54.00523300000000	737.01480700000002	55.46552300000000	-0.09069700000000	0.00000000000000	0.10560900000000	-2.56143700000000	121.21188100000001	6.35938500000000	0.22204600000000	0.00000000000000	-0.11885500000000	0.00000000000000	0.93637800000000	0.00000000000000	0.00000000000000	3.27564100000000	0.00000000000000	
1.65499100000000	-54.37925300000000	734.61330499999997	55.09734800000000	-0.09134900000000	0.00000000000000	0.10549400000000	-1.79521800000000	126.07001200000001	6.13468700000000	0.22317100000000	0.00000000000000	-0.11911300000000	0.00000000000000	0.99150000000000	0.00000000000000	0.00000000000000	3.37550400000000	0.00000000000000	
1.65665700000000	-54.75961600000000	732.13650099999995	54.71791200000000	-0.09200100000000	0.00000000000000	0.10537700000000	-1.00410500000000	131.06628699999999	5.89217600000000	0.22420400000000	0.00000000000000	-0.11936900000000	0.00000000000000	1.05069900000000	0.00000000000000	0.00000000000000	3.47585500000000	0.00000000000000	
1.65832500000000	-55.14658100000000	729.58350700000005	54.32743300000000	-0.09265600000000	0.00000000000000	0.10525700000000	-0.18742300000000	136.19624400000001	5.63099200000000	0.22515100000000	0.00000000000000	-0.11962200000000	0.00000000000000	1.11398100000000	0.00000000000000	0.00000000000000	3.57636800000000	0.00000000000000	
1.65999900000000	-55.54037400000000	726.95341599999995	53.92613500000000	-0.09331400000000	0.00000000000000	0.10513500000000	0.65653500000000	141.44930800000000	5.34955800000000	0.22601500000000	0.00000000000000	-0.11987300000000	0.00000000000000	1.18134400000000	0.00000000000000	0.00000000000000	3.67651900000000	0.00000000000000	
1.66165800000000	-55.94118800000000	724.24530600000003	53.51425000000000	-0.09397600000000	0.00000000000000	0.10501100000000	1.53009400000000	146.81055499999999	5.04584400000000	0.22679800000000	0.00000000000000	-0.12012200000000	0.00000000000000	1.25278100000000	0.00000000000000	0.00000000000000	3.77564900000000	0.00000000000000	
1.66332800000000	-56.34917900000000	721.45823700000005	53.09201300000000	-0.09464200000000	0.00000000000000	0.10488500000000	2.43581100000000	152.26244600000001	4.71761200000000	0.22750600000000	0.00000000000000	-0.12036900000000	0.00000000000000	1.32828000000000	0.00000000000000	0.00000000000000	3.87303400000000	0.00000000000000	
1.66499600000000	-56.76446500000000	718.59125300000005	52.65966500000000	-0.09531200000000	0.00000000000000	0.10475800000000	3.37614300000000	157.78641800000000	4.36264600000000	0.22813900000000	0.00000000000000	-0.12061400000000	0.00000000000000	1.40782200000000	0.00000000000000	0.00000000000000	3.96793600000000	0.00000000000000	
1.66666300000000	-57.18712300000000	715.64338199999997	52.21744800000000	-0.09598800000000	0.00000000000000	0.10462800000000	4.35317800000000	163.36422800000000	3.97893100000000	0.22870200000000	0.00000000000000	-0.12085800000000	0.00000000000000	1.49138000000000	0.00000000000000	0.00000000000000	4.05965700000000	0.00000000000000	
1.66832600000000	-57.61718500000000	712.61363600000004	51.76560900000000	-0.09667000000000	0.00000000000000	0.10449700000000	5.36844900000000	168.97901300000001	3.56479000000000	0.22919700000000	0.00000000000000	-0.12110000000000	0.00000000000000	1.57892400000000	0.00000000000000	0.00000000000000	4.14757600000000	0.00000000000000	
1.66999800000000	-58.05463800000000	709.50101400000005	51.30439700000000	-0.09735900000000	0.00000000000000	0.10436500000000	6.42281500000000	174.61603600000001	3.11897400000000	0.22962600000000	0.00000000000000	-0.12134000000000	0.00000000000000	1.67041500000000	0.00000000000000	0.00000000000000	4.23117300000000	0.00000000000000	
1.67165600000000	-58.49942100000000	706.30450199999996	50.83406000000000	-0.09805400000000	0.00000000000000	0.10423100000000	7.51641200000000	180.26312799999999	2.64071100000000	0.22999100000000	0.00000000000000	-0.12157900000000	0.00000000000000	1.76580900000000	0.00000000000000	0.00000000000000	4.31004800000000	0.00000000000000	
1.67332700000000	-58.95142300000000	703.02307299999995	50.35484900000000	-0.09875800000000	0.00000000000000	0.10409600000000	8.64866700000000	185.91085500000000	2.12971000000000	0.23029500000000	0.00000000000000	-0.12181600000000	0.00000000000000	1.86505400000000	0.00000000000000	0.00000000000000	4.38392100000000	0.00000000000000	
1.67499800000000	-59.41048100000000	699.65569100000005	49.86701500000000	-0.09946900000000	0.00000000000000	0.10395900000000	9.81835500000000	191.55244700000000	1.58614000000000	0.23053900000000	0.00000000000000	-0.12205200000000	0.00000000000000	1.96809300000000	0.00000000000000	0.00000000000000	4.45263100000000	0.00000000000000	
1.67666500000000	-59.87637600000000	696.20131200000003	49.37080400000000	-0.10019000000000	0.00000000000000	0.10382200000000	11.02369000000000	197.18355800000000	1.01057700000000	0.23072500000000	0.00000000000000	-0.12228600000000	0.00000000000000	2.07486100000000	0.00000000000000	0.00000000000000	4.51612400000000	0.00000000000000	
1.67832800000000	-60.34883600000000	692.65888700000005	48.86646600000000	-0.10091900000000	0.00000000000000	0.10368300000000	12.26243500000000	202.80188500000000	0.40394600000000	0.23085600000000	0.00000000000000	-0.12251800000000	0.00000000000000	2.18528500000000	0.00000000000000	0.00000000000000	4.57443800000000	0.00000000000000	
